<svg width="42" height="45" viewBox="0 0 42 45" fill="none" xmlns="http://www.w3.org/2000/svg">
<g clip-path="url(#clip0_329_343)">
<path d="M15.641 39.2174V39.2174C15.6411 40.5534 14.6293 41.6193 13.4016 41.6193C12.1739 41.6193 11.1622 40.5534 11.1622 39.2174C11.1622 37.8814 12.1739 36.8155 13.4016 36.8155C14.6293 36.8155 15.641 37.8814 15.641 39.2174ZM13.4016 34.4738C10.9342 34.4738 8.95059 36.607 8.95059 39.2173C8.95059 41.8277 10.9343 43.9608 13.4016 43.9608C15.869 43.9608 17.8526 41.8276 17.8526 39.2173C17.8527 36.607 15.869 34.4738 13.4016 34.4738Z" fill="#222222" stroke="#222222" stroke-width="0.3"/>
<path d="M33.8012 39.2174V39.2174C33.8013 40.5534 32.7894 41.6193 31.5618 41.6193C30.3341 41.6193 29.3223 40.5534 29.3223 39.2174C29.3223 37.8814 30.3341 36.8155 31.5618 36.8155C32.7894 36.8155 33.8012 37.8814 33.8012 39.2174ZM31.5618 34.4738C29.0943 34.4738 27.1107 36.607 27.1107 39.2173C27.1107 41.8277 29.0944 43.9608 31.5618 43.9608C34.0291 43.9608 36.0128 41.8276 36.0128 39.2173C36.0128 36.607 34.0292 34.4738 31.5618 34.4738Z" fill="#222222" stroke="#222222" stroke-width="0.3"/>
<path d="M41.3802 7.73441L41.3803 7.73436L41.377 7.73053C41.154 7.47038 40.847 7.30555 40.5141 7.27061L40.5142 7.27001L40.5007 7.26981L9.49899 6.81207L8.67079 4.10929L8.6708 4.10929L8.67011 4.10714C8.04594 2.17428 6.34728 0.86057 4.41914 0.838779V0.83877H4.41744H1.21556C0.595685 0.83877 0.109766 1.37238 0.109766 2.00956C0.109766 2.64674 0.595685 3.18036 1.21556 3.18036H4.41564C5.38507 3.204 6.24675 3.86963 6.56839 4.8621C6.56848 4.86239 6.56857 4.86268 6.56867 4.86296L12.6215 24.3581L12.1639 25.4822L12.1638 25.4822L12.1618 25.4876C11.6134 26.9978 11.7778 28.6975 12.6047 30.0572L12.605 30.0577C13.4252 31.395 14.8082 32.2245 16.3123 32.2728L16.3123 32.2729H16.3171H34.9072C35.5271 32.2729 36.013 31.7393 36.013 31.1021C36.013 30.4649 35.5271 29.9313 34.9072 29.9313H16.3191C15.5554 29.9102 14.8481 29.4807 14.4394 28.7807L14.4394 28.7807C14.0336 28.0865 13.9492 27.23 14.2113 26.4595L14.5578 25.627L34.5893 23.391L34.5902 23.3909C36.8688 23.1229 38.7343 21.3548 39.2591 18.987L41.5512 8.7366C41.6672 8.3957 41.6034 8.0132 41.3802 7.73441ZM37.1026 18.4621L37.102 18.4647C36.8041 19.893 35.6717 20.9366 34.3211 21.0509L34.3173 21.0514L14.56 23.2324L10.2132 9.15525L39.1165 9.60846L37.1026 18.4621Z" fill="#222222" stroke="#222222" stroke-width="0.3"/>
</g>
<defs>
<clipPath id="clip0_329_343">
<rect width="41.1982" height="44" fill="white" transform="translate(0.259766 0.399902)"/>
</clipPath>
</defs>
</svg>
