<svg width="18" height="22" viewBox="0 0 18 22" fill="none" xmlns="http://www.w3.org/2000/svg">
<path d="M17.2057 19.0011L15.955 6.12562C15.9197 5.77087 15.6023 5.5 15.2216 5.5H13.0171V4.125C13.0171 3.0195 12.5601 1.98138 11.7297 1.2045C10.8994 0.427625 9.78976 0 8.60815 0C6.17733 0 4.19916 1.85075 4.19916 4.125V5.5H1.99466C1.61402 5.5 1.29657 5.77087 1.26277 6.12562L0.0120845 19.0011C-0.0628684 19.7684 0.213429 20.5356 0.768962 21.1049C1.32449 21.6741 2.11517 22 2.93966 22H14.2781C15.1026 22 15.8933 21.6741 16.4488 21.1049C17.0043 20.5356 17.2792 19.7684 17.2057 19.0011ZM5.66882 4.125C5.66882 2.60837 6.98711 1.375 8.60815 1.375C9.39736 1.375 10.1366 1.65962 10.6907 2.17662C11.2447 2.69362 11.5475 3.38662 11.5475 4.125V5.5H5.66882V4.125ZM15.3627 20.1781C15.0806 20.4655 14.6955 20.625 14.2766 20.625H2.93966C2.52227 20.625 2.13575 20.4655 1.85504 20.1768C1.57287 19.888 1.43913 19.5154 1.47734 19.1249L2.6663 6.875H4.19916V8.9375C4.19916 9.317 4.52836 9.625 4.93399 9.625C5.33962 9.625 5.66882 9.317 5.66882 8.9375V6.875H11.5475V8.9375C11.5475 9.317 11.8767 9.625 12.2823 9.625C12.6879 9.625 13.0171 9.317 13.0171 8.9375V6.875H14.55L15.7404 19.1262C15.7786 19.5154 15.6449 19.8894 15.3627 20.1781Z" fill="white"/>
</svg>
