<?xml version="1.0" standalone="no"?>
<!DOCTYPE svg PUBLIC "-//W3C//DTD SVG 20010904//EN"
 "http://www.w3.org/TR/2001/REC-SVG-20010904/DTD/svg10.dtd">
<svg version="1.0" xmlns="http://www.w3.org/2000/svg"
 width="256.000000pt" height="256.000000pt" viewBox="0 0 256.000000 256.000000"
 preserveAspectRatio="xMidYMid meet">
<metadata>
Created by potrace 1.16, written by Peter Selinger 2001-2019
</metadata>
<g transform="translate(0.000000,256.000000) scale(0.100000,-0.100000)"
fill="#000000" stroke="none">
<path d="M210 2538 c-76 -29 -160 -114 -188 -191 l-22 -58 0 -1009 0 -1009 22
-58 c29 -79 112 -162 191 -191 l58 -22 1009 0 1009 0 58 22 c79 29 162 112
191 191 l22 58 0 1009 0 1009 -22 58 c-29 79 -112 162 -191 191 l-58 22 -1012
-1 c-1004 0 -1012 0 -1067 -21z m1251 -603 c52 -37 78 -86 86 -159 l6 -56 133
0 c121 0 136 -2 154 -20 11 -11 20 -31 20 -44 0 -27 -42 -66 -71 -66 -18 0
-19 -17 -19 -433 0 -434 0 -434 -23 -477 -16 -30 -37 -51 -67 -67 -43 -23 -47
-23 -400 -23 -353 0 -357 0 -400 23 -30 16 -51 37 -67 67 -23 43 -23 43 -23
477 0 416 -1 433 -19 433 -29 0 -71 39 -71 66 0 13 9 33 20 44 18 18 33 20
155 20 l135 0 0 31 c0 94 58 186 132 208 18 6 88 9 155 8 117 -2 123 -3 164
-32z"/>
<path d="M1156 1818 c-9 -12 -16 -39 -16 -60 l0 -38 140 0 140 0 0 38 c0 21
-7 48 -16 60 -14 20 -23 22 -124 22 -101 0 -110 -2 -124 -22z"/>
<path d="M920 1167 c0 -316 3 -426 12 -435 17 -17 679 -17 696 0 9 9 12 119
12 435 l0 423 -360 0 -360 0 0 -423z m270 273 c19 -19 20 -33 20 -292 0 -265
-1 -272 -22 -295 -28 -30 -62 -29 -87 3 -20 26 -21 39 -21 295 0 256 1 270 20
289 11 11 31 20 45 20 14 0 34 -9 45 -20z m270 0 c19 -19 20 -33 20 -289 0
-256 -1 -269 -21 -295 -25 -32 -55 -33 -86 -4 -23 21 -23 22 -23 295 0 260 1
274 20 293 11 11 31 20 45 20 14 0 34 -9 45 -20z"/>
</g>
</svg>
