<svg width="16" height="15" viewBox="0 0 16 15" fill="none" xmlns="http://www.w3.org/2000/svg">
<path d="M2.75 13.75V4.75M13.25 0.25V3.25V0.25ZM13.25 13.75V6.25V13.75ZM8 0.25V9.25V0.25ZM8 13.75V12.25V13.75ZM2.75 0.25V1.75V0.25Z" stroke="black" stroke-width="1.2" stroke-linecap="round"/>
<path d="M11.75 4.75C11.75 5.57843 12.4216 6.25 13.25 6.25C14.0784 6.25 14.75 5.57843 14.75 4.75C14.75 3.92157 14.0784 3.25 13.25 3.25C12.4216 3.25 11.75 3.92157 11.75 4.75Z" stroke="black" stroke-width="1.2" stroke-linecap="round"/>
<path d="M6.5 10.75C6.5 11.5784 7.17157 12.25 8 12.25C8.82843 12.25 9.5 11.5784 9.5 10.75C9.5 9.92157 8.82843 9.25 8 9.25C7.17157 9.25 6.5 9.92157 6.5 10.75Z" stroke="black" stroke-width="1.2" stroke-linecap="round"/>
<path d="M1.25 3.25C1.25 4.07843 1.92157 4.75 2.75 4.75C3.57843 4.75 4.25 4.07843 4.25 3.25C4.25 2.42157 3.57843 1.75 2.75 1.75C1.92157 1.75 1.25 2.42157 1.25 3.25Z" stroke="black" stroke-width="1.2" stroke-linecap="round"/>
</svg>
